<?xml version="1.0" encoding="UTF-8" standalone="no"?>
<svg width="800" height="600" viewBox="0 0 800 600" xmlns="http://www.w3.org/2000/svg">
  <rect x="50" y="50" width="200" height="150" fill="#f0f8ff" stroke="#4682b4" stroke-width="2"/>
  <text x="150" y="80" text-anchor="middle" font-family="Arial" font-size="16" fill="#000000">Customer</text>
  <line x1="50" y1="100" x2="250" y2="100" stroke="#4682b4" stroke-width="1"/>
  <text x="60" y="125" font-family="Arial" font-size="12" fill="#000000">customerId: String</text>
  <text x="60" y="140" font-family="Arial" font-size="12" fill="#000000">name: String</text>
  <text x="60" y="155" font-family="Arial" font-size="12" fill="#000000">email: String</text>
  <text x="60" y="170" font-family="Arial" font-size="12" fill="#000000">address: String</text>
  <text x="60" y="185" font-family="Arial" font-size="12" fill="#000000">demographics: Mixed</text>

  <rect x="300" y="50" width="200" height="150" fill="#f0f8ff" stroke="#4682b4" stroke-width="2"/>
  <text x="400" y="80" text-anchor="middle" font-family="Arial" font-size="16" fill="#000000">Product</text>
  <line x1="300" y1="100" x2="500" y2="100" stroke="#4682b4" stroke-width="1"/>
  <text x="310" y="125" font-family="Arial" font-size="12" fill="#000000">productId: String</text>
  <text x="310" y="140" font-family="Arial" font-size="12" fill="#000000">name: String</text>
  <text x="310" y="155" font-family="Arial" font-size="12" fill="#000000">category: String</text>
  <text x="310" y="170" font-family="Arial" font-size="12" fill="#000000">description: String</text>
  <text x="310" y="185" font-family="Arial" font-size="12" fill="#000000">price: Number</text>

  <rect x="550" y="50" width="200" height="250" fill="#f0f8ff" stroke="#4682b4" stroke-width="2"/>
  <text x="650" y="80" text-anchor="middle" font-family="Arial" font-size="16" fill="#000000">Order</text>
  <line x1="550" y1="100" x2="750" y2="100" stroke="#4682b4" stroke-width="1"/>
  <text x="560" y="125" font-family="Arial" font-size="12" fill="#000000">orderId: String</text>
  <text x="560" y="140" font-family="Arial" font-size="12" fill="#000000">customer: String</text>
  <text x="560" y="155" font-family="Arial" font-size="12" fill="#000000">products: Array</text>
  <text x="580" y="170" font-family="Arial" font-size="10" fill="#000000">product: String</text>
  <text x="580" y="185" font-family="Arial" font-size="10" fill="#000000">quantity: Number</text>
  <text x="580" y="200" font-family="Arial" font-size="10" fill="#000000">unitPrice: Number</text>
  <text x="580" y="215" font-family="Arial" font-size="10" fill="#000000">discount: Number</text>
  <text x="580" y="230" font-family="Arial" font-size="10" fill="#000000">shippingCost: Number</text>
  <text x="560" y="245" font-family="Arial" font-size="12" fill="#000000">region: String</text>
  <text x="560" y="260" font-family="Arial" font-size="12" fill="#000000">paymentMethod: String</text>
  <text x="560" y="275" font-family="Arial" font-size="12" fill="#000000">orderDate: Date</text>
  <text x="560" y="290" font-family="Arial" font-size="12" fill="#000000">totalAmount: Number</text>

  <path d="M250,125 C275,125 275,125 300,125" stroke="#4682b4" stroke-width="2" fill="none" marker-end="url(#arrow)"/>
  <path d="M400,200 C400,225 400,225 400,250" stroke="#4682b4" stroke-width="2" fill="none" marker-end="url(#arrow)"/>
  <path d="M500,125 C525,125 525,125 550,125" stroke="#4682b4" stroke-width="2" fill="none" marker-end="url(#arrow)"/>

  <defs>
    <marker id="arrow" markerWidth="10" markerHeight="10" refX="9" refY="3" orient="auto" markerUnits="strokeWidth">
      <path d="M0,0 L0,6 L9,3 z" fill="#4682b4"/>
    </marker>
  </defs>
</svg>